<svg width="53" height="25" viewBox="0 0 53 25" fill="none" xmlns="http://www.w3.org/2000/svg">
<path fill-rule="evenodd" clip-rule="evenodd" d="M6.58578 8.51733C6.63816 8.57249 6.67972 8.63801 6.70808 8.71014C6.73644 8.78228 6.75103 8.85961 6.75103 8.93771C6.75103 9.01581 6.73644 9.09314 6.70808 9.16527C6.67972 9.23741 6.63816 9.30293 6.58578 9.35808L3.6079 12.5002L6.58578 15.6423C6.63808 15.6975 6.67956 15.7631 6.70787 15.8352C6.73617 15.9073 6.75074 15.9846 6.75074 16.0627C6.75074 16.1408 6.73617 16.2181 6.70787 16.2902C6.67956 16.3623 6.63808 16.4279 6.58578 16.4831C6.53348 16.5383 6.47139 16.5821 6.40306 16.612C6.33473 16.6418 6.26149 16.6572 6.18753 16.6572C6.11357 16.6572 6.04033 16.6418 5.972 16.612C5.90367 16.5821 5.84158 16.5383 5.78928 16.4831L2.41428 12.9206C2.3619 12.8654 2.32033 12.7999 2.29198 12.7278C2.26362 12.6556 2.24902 12.5783 2.24902 12.5002C2.24902 12.4221 2.26362 12.3448 2.29198 12.2726C2.32033 12.2005 2.3619 12.135 2.41428 12.0798L5.78928 8.51733C5.84153 8.46204 5.9036 8.41817 5.97194 8.38824C6.04028 8.3583 6.11354 8.3429 6.18753 8.3429C6.26152 8.3429 6.33478 8.3583 6.40312 8.38824C6.47146 8.41817 6.53353 8.46204 6.58578 8.51733Z" fill="#56597A" fill-opacity="0.6"/>
<path fill-rule="evenodd" clip-rule="evenodd" d="M2.8125 12.5002C2.8125 12.3428 2.87176 12.1917 2.97725 12.0804C3.08274 11.969 3.22582 11.9065 3.375 11.9065H15.1875C15.3367 11.9065 15.4798 11.969 15.5852 12.0804C15.6907 12.1917 15.75 12.3428 15.75 12.5002C15.75 12.6577 15.6907 12.8087 15.5852 12.9201C15.4798 13.0314 15.3367 13.094 15.1875 13.094H3.375C3.22582 13.094 3.08274 13.0314 2.97725 12.9201C2.87176 12.8087 2.8125 12.6577 2.8125 12.5002Z" fill="#56597A" fill-opacity="0.6"/>
<path fill-rule="evenodd" clip-rule="evenodd" d="M43.8531 7.25961C43.9256 7.18686 44.0118 7.12913 44.1068 7.08975C44.2017 7.05036 44.3034 7.03009 44.4062 7.03009C44.5089 7.03009 44.6107 7.05036 44.7056 7.08975C44.8005 7.12913 44.8867 7.18686 44.9593 7.25961L49.6468 11.9471C49.7196 12.0197 49.7773 12.1059 49.8167 12.2008C49.8561 12.2957 49.8763 12.3975 49.8763 12.5002C49.8763 12.603 49.8561 12.7048 49.8167 12.7997C49.7773 12.8946 49.7196 12.9808 49.6468 13.0534L44.9593 17.7409C44.8126 17.8876 44.6136 17.97 44.4062 17.97C44.1987 17.97 43.9998 17.8876 43.8531 17.7409C43.7064 17.5942 43.6239 17.3952 43.6239 17.1877C43.6239 16.9803 43.7064 16.7813 43.8531 16.6346L47.989 12.5002L43.8531 8.36586C43.7803 8.29329 43.7226 8.20708 43.6832 8.11216C43.6438 8.01725 43.6235 7.9155 43.6235 7.81274C43.6235 7.70998 43.6438 7.60822 43.6832 7.51331C43.7226 7.41839 43.7803 7.33218 43.8531 7.25961Z" fill="#F78CB6"/>
<path fill-rule="evenodd" clip-rule="evenodd" d="M31.125 12.5002C31.125 12.293 31.2073 12.0943 31.3538 11.9478C31.5003 11.8013 31.699 11.719 31.9062 11.719H48.3125C48.5197 11.719 48.7184 11.8013 48.8649 11.9478C49.0114 12.0943 49.0938 12.293 49.0938 12.5002C49.0938 12.7074 49.0114 12.9062 48.8649 13.0527C48.7184 13.1992 48.5197 13.2815 48.3125 13.2815H31.9062C31.699 13.2815 31.5003 13.1992 31.3538 13.0527C31.2073 12.9062 31.125 12.7074 31.125 12.5002Z" fill="#F78CB6"/>
</svg>
